<mxfile host="app.diagrams.net" agent="Mozilla/5.0 (Macintosh; Intel Mac OS X 10_15_7) AppleWebKit/537.36 (KHTML, like Gecko) Chrome/132.0.0.0 Safari/537.36" version="26.0.6">
  <diagram id="C5RBs43oDa-KdzZeNtuy" name="Page-1">
    <mxGraphModel dx="1434" dy="761" grid="1" gridSize="10" guides="1" tooltips="1" connect="1" arrows="1" fold="1" page="1" pageScale="1" pageWidth="827" pageHeight="1169" math="0" shadow="0">
      <root>
        <mxCell id="WIyWlLk6GJQsqaUBKTNV-0" />
        <mxCell id="WIyWlLk6GJQsqaUBKTNV-1" parent="WIyWlLk6GJQsqaUBKTNV-0" />
        <mxCell id="Sdyu2rEtfvHqQvHWjKCV-1" value="" style="edgeStyle=orthogonalEdgeStyle;rounded=0;orthogonalLoop=1;jettySize=auto;html=1;" edge="1" parent="WIyWlLk6GJQsqaUBKTNV-1" source="WIyWlLk6GJQsqaUBKTNV-3" target="Sdyu2rEtfvHqQvHWjKCV-0">
          <mxGeometry relative="1" as="geometry" />
        </mxCell>
        <mxCell id="WIyWlLk6GJQsqaUBKTNV-3" value="START" style="rounded=1;whiteSpace=wrap;html=1;fontSize=12;glass=0;strokeWidth=1;shadow=0;" parent="WIyWlLk6GJQsqaUBKTNV-1" vertex="1">
          <mxGeometry x="340" y="80" width="150" height="40" as="geometry" />
        </mxCell>
        <mxCell id="Sdyu2rEtfvHqQvHWjKCV-3" value="" style="edgeStyle=orthogonalEdgeStyle;rounded=0;orthogonalLoop=1;jettySize=auto;html=1;" edge="1" parent="WIyWlLk6GJQsqaUBKTNV-1" source="Sdyu2rEtfvHqQvHWjKCV-0" target="Sdyu2rEtfvHqQvHWjKCV-2">
          <mxGeometry relative="1" as="geometry" />
        </mxCell>
        <mxCell id="Sdyu2rEtfvHqQvHWjKCV-0" value="Generate random word" style="whiteSpace=wrap;html=1;rounded=1;glass=0;strokeWidth=1;shadow=0;" vertex="1" parent="WIyWlLk6GJQsqaUBKTNV-1">
          <mxGeometry x="340" y="150" width="150" height="60" as="geometry" />
        </mxCell>
        <mxCell id="Sdyu2rEtfvHqQvHWjKCV-5" value="" style="edgeStyle=orthogonalEdgeStyle;rounded=0;orthogonalLoop=1;jettySize=auto;html=1;" edge="1" parent="WIyWlLk6GJQsqaUBKTNV-1" source="Sdyu2rEtfvHqQvHWjKCV-2" target="Sdyu2rEtfvHqQvHWjKCV-4">
          <mxGeometry relative="1" as="geometry" />
        </mxCell>
        <mxCell id="Sdyu2rEtfvHqQvHWjKCV-2" value="Generate as many blanks as letters in word" style="whiteSpace=wrap;html=1;rounded=1;glass=0;strokeWidth=1;shadow=0;" vertex="1" parent="WIyWlLk6GJQsqaUBKTNV-1">
          <mxGeometry x="340" y="240" width="150" height="60" as="geometry" />
        </mxCell>
        <mxCell id="Sdyu2rEtfvHqQvHWjKCV-7" value="" style="edgeStyle=orthogonalEdgeStyle;rounded=0;orthogonalLoop=1;jettySize=auto;html=1;fontFamily=Helvetica;fontSize=12;fontColor=default;" edge="1" parent="WIyWlLk6GJQsqaUBKTNV-1" source="Sdyu2rEtfvHqQvHWjKCV-4" target="Sdyu2rEtfvHqQvHWjKCV-6">
          <mxGeometry relative="1" as="geometry" />
        </mxCell>
        <mxCell id="Sdyu2rEtfvHqQvHWjKCV-4" value="Ask the user to guess a letter" style="whiteSpace=wrap;html=1;rounded=1;glass=0;strokeWidth=1;shadow=0;" vertex="1" parent="WIyWlLk6GJQsqaUBKTNV-1">
          <mxGeometry x="340" y="330" width="150" height="60" as="geometry" />
        </mxCell>
        <mxCell id="Sdyu2rEtfvHqQvHWjKCV-15" value="" style="edgeStyle=orthogonalEdgeStyle;rounded=0;orthogonalLoop=1;jettySize=auto;html=1;fontFamily=Helvetica;fontSize=12;fontColor=default;" edge="1" parent="WIyWlLk6GJQsqaUBKTNV-1" source="Sdyu2rEtfvHqQvHWjKCV-6" target="Sdyu2rEtfvHqQvHWjKCV-14">
          <mxGeometry relative="1" as="geometry" />
        </mxCell>
        <mxCell id="Sdyu2rEtfvHqQvHWjKCV-21" value="" style="edgeStyle=orthogonalEdgeStyle;rounded=0;orthogonalLoop=1;jettySize=auto;html=1;fontFamily=Helvetica;fontSize=12;fontColor=default;" edge="1" parent="WIyWlLk6GJQsqaUBKTNV-1" source="Sdyu2rEtfvHqQvHWjKCV-6" target="Sdyu2rEtfvHqQvHWjKCV-20">
          <mxGeometry relative="1" as="geometry" />
        </mxCell>
        <mxCell id="Sdyu2rEtfvHqQvHWjKCV-6" value="Is the guessed letter in the word?" style="rhombus;whiteSpace=wrap;html=1;rounded=1;glass=0;strokeWidth=1;shadow=0;spacingTop=0;spacing=20;" vertex="1" parent="WIyWlLk6GJQsqaUBKTNV-1">
          <mxGeometry x="340" y="420" width="150" height="100" as="geometry" />
        </mxCell>
        <mxCell id="Sdyu2rEtfvHqQvHWjKCV-17" value="" style="edgeStyle=orthogonalEdgeStyle;rounded=0;orthogonalLoop=1;jettySize=auto;html=1;fontFamily=Helvetica;fontSize=12;fontColor=default;" edge="1" parent="WIyWlLk6GJQsqaUBKTNV-1" source="Sdyu2rEtfvHqQvHWjKCV-14" target="Sdyu2rEtfvHqQvHWjKCV-16">
          <mxGeometry relative="1" as="geometry" />
        </mxCell>
        <mxCell id="Sdyu2rEtfvHqQvHWjKCV-14" value="Lose a life" style="whiteSpace=wrap;html=1;rounded=1;glass=0;strokeWidth=1;shadow=0;spacingTop=0;spacing=20;" vertex="1" parent="WIyWlLk6GJQsqaUBKTNV-1">
          <mxGeometry x="520" y="530" width="120" height="35" as="geometry" />
        </mxCell>
        <mxCell id="Sdyu2rEtfvHqQvHWjKCV-19" style="edgeStyle=orthogonalEdgeStyle;rounded=0;orthogonalLoop=1;jettySize=auto;html=1;entryX=1;entryY=0.5;entryDx=0;entryDy=0;fontFamily=Helvetica;fontSize=12;fontColor=default;" edge="1" parent="WIyWlLk6GJQsqaUBKTNV-1" source="Sdyu2rEtfvHqQvHWjKCV-16" target="Sdyu2rEtfvHqQvHWjKCV-4">
          <mxGeometry relative="1" as="geometry">
            <Array as="points">
              <mxPoint x="680" y="635" />
              <mxPoint x="680" y="360" />
            </Array>
          </mxGeometry>
        </mxCell>
        <mxCell id="Sdyu2rEtfvHqQvHWjKCV-33" style="edgeStyle=orthogonalEdgeStyle;rounded=0;orthogonalLoop=1;jettySize=auto;html=1;entryX=0.5;entryY=0;entryDx=0;entryDy=0;fontFamily=Helvetica;fontSize=12;fontColor=default;" edge="1" parent="WIyWlLk6GJQsqaUBKTNV-1" source="Sdyu2rEtfvHqQvHWjKCV-16">
          <mxGeometry relative="1" as="geometry">
            <mxPoint x="415" y="770" as="targetPoint" />
            <Array as="points">
              <mxPoint x="580" y="720" />
              <mxPoint x="415" y="720" />
            </Array>
          </mxGeometry>
        </mxCell>
        <mxCell id="Sdyu2rEtfvHqQvHWjKCV-16" value="Have they run out of lives?" style="rhombus;whiteSpace=wrap;html=1;rounded=1;glass=0;strokeWidth=1;shadow=0;spacingTop=0;spacing=20;" vertex="1" parent="WIyWlLk6GJQsqaUBKTNV-1">
          <mxGeometry x="520" y="595" width="120" height="80" as="geometry" />
        </mxCell>
        <mxCell id="Sdyu2rEtfvHqQvHWjKCV-18" value="No" style="text;html=1;align=center;verticalAlign=middle;resizable=0;points=[];autosize=1;strokeColor=none;fillColor=none;fontFamily=Helvetica;fontSize=12;fontColor=default;" vertex="1" parent="WIyWlLk6GJQsqaUBKTNV-1">
          <mxGeometry x="580" y="480" width="40" height="30" as="geometry" />
        </mxCell>
        <mxCell id="Sdyu2rEtfvHqQvHWjKCV-20" value="Replace the blank with the letter(s)" style="whiteSpace=wrap;html=1;rounded=1;glass=0;strokeWidth=1;shadow=0;spacingTop=0;spacing=20;" vertex="1" parent="WIyWlLk6GJQsqaUBKTNV-1">
          <mxGeometry x="180" y="530" width="140" height="40" as="geometry" />
        </mxCell>
        <mxCell id="Sdyu2rEtfvHqQvHWjKCV-26" value="" style="edgeStyle=orthogonalEdgeStyle;rounded=0;orthogonalLoop=1;jettySize=auto;html=1;fontFamily=Helvetica;fontSize=12;fontColor=default;" edge="1" parent="WIyWlLk6GJQsqaUBKTNV-1" source="Sdyu2rEtfvHqQvHWjKCV-20" target="Sdyu2rEtfvHqQvHWjKCV-25">
          <mxGeometry relative="1" as="geometry">
            <mxPoint x="250" y="570" as="sourcePoint" />
            <mxPoint x="250" y="650" as="targetPoint" />
          </mxGeometry>
        </mxCell>
        <mxCell id="Sdyu2rEtfvHqQvHWjKCV-27" style="edgeStyle=orthogonalEdgeStyle;rounded=0;orthogonalLoop=1;jettySize=auto;html=1;entryX=0;entryY=0.5;entryDx=0;entryDy=0;fontFamily=Helvetica;fontSize=12;fontColor=default;" edge="1" parent="WIyWlLk6GJQsqaUBKTNV-1" source="Sdyu2rEtfvHqQvHWjKCV-25" target="Sdyu2rEtfvHqQvHWjKCV-4">
          <mxGeometry relative="1" as="geometry">
            <Array as="points">
              <mxPoint x="140" y="635" />
              <mxPoint x="140" y="360" />
            </Array>
          </mxGeometry>
        </mxCell>
        <mxCell id="Sdyu2rEtfvHqQvHWjKCV-25" value="Are all the blanks filled?" style="rhombus;whiteSpace=wrap;html=1;rounded=1;glass=0;strokeWidth=1;shadow=0;spacingTop=0;spacing=20;" vertex="1" parent="WIyWlLk6GJQsqaUBKTNV-1">
          <mxGeometry x="190" y="595" width="120" height="80" as="geometry" />
        </mxCell>
        <mxCell id="Sdyu2rEtfvHqQvHWjKCV-28" value="Yes" style="text;html=1;align=center;verticalAlign=middle;resizable=0;points=[];autosize=1;strokeColor=none;fillColor=none;fontFamily=Helvetica;fontSize=12;fontColor=default;" vertex="1" parent="WIyWlLk6GJQsqaUBKTNV-1">
          <mxGeometry x="210" y="480" width="40" height="30" as="geometry" />
        </mxCell>
        <mxCell id="Sdyu2rEtfvHqQvHWjKCV-29" value="No" style="text;html=1;align=center;verticalAlign=middle;resizable=0;points=[];autosize=1;strokeColor=none;fillColor=none;fontFamily=Helvetica;fontSize=12;fontColor=default;" vertex="1" parent="WIyWlLk6GJQsqaUBKTNV-1">
          <mxGeometry x="640" y="640" width="40" height="30" as="geometry" />
        </mxCell>
        <mxCell id="Sdyu2rEtfvHqQvHWjKCV-30" value="No" style="text;html=1;align=center;verticalAlign=middle;resizable=0;points=[];autosize=1;strokeColor=none;fillColor=none;fontFamily=Helvetica;fontSize=12;fontColor=default;" vertex="1" parent="WIyWlLk6GJQsqaUBKTNV-1">
          <mxGeometry x="150" y="640" width="40" height="30" as="geometry" />
        </mxCell>
        <mxCell id="Sdyu2rEtfvHqQvHWjKCV-34" value="Yes" style="text;html=1;align=center;verticalAlign=middle;resizable=0;points=[];autosize=1;strokeColor=none;fillColor=none;fontFamily=Helvetica;fontSize=12;fontColor=default;" vertex="1" parent="WIyWlLk6GJQsqaUBKTNV-1">
          <mxGeometry x="540" y="690" width="40" height="30" as="geometry" />
        </mxCell>
        <mxCell id="Sdyu2rEtfvHqQvHWjKCV-35" value="Yes" style="text;html=1;align=center;verticalAlign=middle;resizable=0;points=[];autosize=1;strokeColor=none;fillColor=none;fontFamily=Helvetica;fontSize=12;fontColor=default;" vertex="1" parent="WIyWlLk6GJQsqaUBKTNV-1">
          <mxGeometry x="250" y="690" width="40" height="30" as="geometry" />
        </mxCell>
        <mxCell id="Sdyu2rEtfvHqQvHWjKCV-38" value="" style="edgeStyle=orthogonalEdgeStyle;rounded=0;orthogonalLoop=1;jettySize=auto;html=1;fontFamily=Helvetica;fontSize=12;fontColor=default;exitX=0.5;exitY=1;exitDx=0;exitDy=0;entryX=0.5;entryY=0;entryDx=0;entryDy=0;" edge="1" parent="WIyWlLk6GJQsqaUBKTNV-1" source="Sdyu2rEtfvHqQvHWjKCV-25" target="Sdyu2rEtfvHqQvHWjKCV-36">
          <mxGeometry relative="1" as="geometry">
            <mxPoint x="415" y="770" as="targetPoint" />
            <mxPoint x="250" y="675" as="sourcePoint" />
            <Array as="points">
              <mxPoint x="250" y="720" />
              <mxPoint x="415" y="720" />
            </Array>
          </mxGeometry>
        </mxCell>
        <mxCell id="Sdyu2rEtfvHqQvHWjKCV-36" value="GAME OVER" style="whiteSpace=wrap;html=1;rounded=1;glass=0;strokeWidth=1;shadow=0;" vertex="1" parent="WIyWlLk6GJQsqaUBKTNV-1">
          <mxGeometry x="340" y="760" width="150" height="40" as="geometry" />
        </mxCell>
      </root>
    </mxGraphModel>
  </diagram>
</mxfile>
